<?xml version="1.0" encoding="utf-8"?>
<!-- Generator: Adobe Illustrator 28.0.0, SVG Export Plug-In . SVG Version: 6.00 Build 0)  -->
<svg version="1.1" id="Layer_1" xmlns="http://www.w3.org/2000/svg" xmlns:xlink="http://www.w3.org/1999/xlink" x="0px" y="0px"
	 viewBox="0 0 720.8 363.5" style="enable-background:new 0 0 720.8 363.5;" xml:space="preserve">
<style type="text/css">
	.st0{fill:#969696;}
	.st1{fill:#979797;}
	.st2{fill:#060606;}
	.st3{fill:#A5A5A5;}
	.st4{fill:#A6A6A6;}
	.st5{fill:#565656;}
	.st6{fill:#A3A3A3;}
	.st7{fill:#A7A7A7;}
	.st8{fill:#616161;}
	.st9{fill:#D7D7D7;}
	.st10{fill:#666666;}
	.st11{fill:#EDEDED;}
	.st12{fill:#969696;stroke:#969696;stroke-width:2;stroke-miterlimit:10;}
	.st13{fill:#060606;stroke:#000000;stroke-width:2;stroke-miterlimit:10;}
</style>
<image style="overflow:visible;enable-background:new    ;" width="769" height="789" id="Image_00000073693268148833164630000003713552293110509219_" xlink:href="logo.jpg"  transform="matrix(0.8111 0 0 0.8111 1214.705 -790.5729)">
</image>
<g id="traced_image">
	<path class="st0" d="M1216.9,138.3c8.3-5,16.7-9.9,25-14.9c4.4-2.6,8.6-5.4,12.9-8.2c-5.5,11.2-9.5,23.1-14.2,34.6
		c-1.5,3.6,0.5,4.6,3.6,4.2c4.6-0.7,9.1-1.9,13.5-3.5c19.7-7.4,38.4-16.8,56.7-27.1c40.8-22.9,78.8-49.8,113.9-80.7
		c23.4-20.5,45.1-42.9,63.4-68.3c2-2.8,4.2-5.6,6.6-8.1c3.3-3.5,9.2-4.9,11.6-2.4c3.5,3.5,1.7,7.6-0.4,11
		c-6.6,10.2-13.7,20.1-21.3,29.5c-31.9,39.8-70.2,72.7-111.7,102c-29.8,21.1-60.9,40-95.3,53c-4.7,1.8-9.4,3.3-14.3,4.5
		c-3.6,0.9-4.8,2.6-4.5,6.3c0.8,11.2,3.9,22,6.9,32.7c6.2,21.7,14.3,42.6,26.6,61.7c6.9,10.7,7.6,10.8,15.2,0.5
		c0.8-1,1.8-1.9,2.6-2.9c-2.2,6.6-7.1,11.1-12.5,15c-22.9,16.9-48.3,23.9-76.6,18.1c-1.8-0.4-3.6-0.6-5-2.1c1.1-2.5,3.2-2.1,5.1-1.6
		c15,4,29.7,1.7,44.3-2c6.5-1.7,7-3.3,2.7-8.6c-12.7-15.3-21.6-32.8-28.2-51.3c-6.4-17.9-10.4-36.3-11.9-55
		c-11,24.6-24.9,47.5-42.1,68.4c-3,3.6-5.2,8.2-9.9,10.1c-6.5-11.9-11.7-24.3-15.9-37.1c6.3-3.5,10.2-9.5,14.4-15
		c14.4-18.6,26.6-38.5,37.6-59.3C1216.6,140.8,1217.4,139.7,1216.9,138.3z"/>
	<path class="st1" d="M1138.9,235.4c1.5,1.2,2,3,2.6,4.7c4.1,11.8,9.8,22.7,17.9,32.2c0.7,0.9,1.6,1.7,1.6,3
		c-2.9-2.9-5.3-2.9-8.9-0.4c-38.8,27.5-82.2,38.8-129.4,36.1c-10.8-0.6-21.5-2.3-31.9-5.2c-3.2-0.9-6.5-1.5-9.8-1.7
		c10.7-3.1,21.1-6.8,31.3-11.4c4.4-2,8-5.5,12.8-6.5c5.6,1.9,11.2,0,16.6-1c27.6-4.9,53.6-14.5,77.2-29.8c4.2-2.7,8.5-5.2,12.5-8.2
		c3.2-2.5,6.5-4.7,5.9-9.6C1137.1,236.7,1137.9,235.8,1138.9,235.4z"/>
	<path class="st0" d="M1132,147.3c0.4,3.1,2.6,3.1,4.8,2.7c13.9-2.5,24.7-9.3,31.4-22.1c6.4-12.1,9-24.9,7.6-38.6
		c-0.3-2.8-1-6.2,2.8-7c3.3-0.7,5.7,1.6,7.1,4.4c3.2,6.7,4.8,13.9,3.6,21.3c-1.2,7.6-3.1,15-7.3,21.6c-1,1.6-2.4,3.2-2.3,5.3
		c1.6,0.9,2.9-0.9,4.3-0.5c-2.7,3-6.6,3.5-10.1,4.9c-3.8,1.4-7.3,3.5-11,5c-8.6,4-17.4,7.5-26.7,9.3c-1.9,0.4-4.3,1.4-5.6-0.5
		C1129.4,151.2,1130.7,149.1,1132,147.3z"/>
	<path class="st0" d="M1273,79.4c-2.6,3.9-7.1,5.3-10.7,7.8c-8.9,6.3-18.1,12.2-27.2,18.2c-1.3-1.4-0.6-2.7,0.2-4
		c13.1-24.3,24.8-49.3,37.4-73.8c0.8-1.6,2.2-3.3,1.1-5.1c-1.3-2.2-3.6-1-5.5-0.9c-20.6,1.3-41,3.9-61.4,6.3
		c-5.8,0.7-11.5,1.9-17.2,3.1c-3.9,0.8-7.3,2.2-9.4,5.8c-0.9,1.6-2.2,2.5-4.2,1.5c2.1-7.4,7.2-13.3,10.7-20c0.8-1.6,2.6-2.2,4.2-2.3
		c11.1-0.8,21.1-4.9,30.9-9.8c-0.3,1.5-2.5,1.6-2.6,3.7c13-1,25.9-1.9,38.7-2.9c8.6-0.6,17.2-1.3,25.9-1.7c3.1-0.2,5.2-1.4,7.1-3.8
		c5.8-7.3,11.6-14.7,19.4-20c5.9-4,12.2-5.8,19.4-4.2c12.3,2.7,16.2,13.6,8.1,23.3c-4.5,5.4-10.7,8.4-17.1,10.8
		c-6.6,2.4-13.4,3.9-20.3,4.9c-2.1,0.3-3.8,0.9-4.9,2.9c-10.4,19-19.3,38.7-26.7,59c-0.2,0.6-0.1,1.2-0.2,1.8
		C1270.5,81.1,1271.5,79.1,1273,79.4z"/>
	<path class="st0" d="M1071,132.3c1.7-5.8,5.8-10.4,7.3-16.3c2.3-9.4,2.3-18.5-1.2-27.5c-2-5.2-6.4-6.8-11-4.1
		c-2-3.2-0.1-4.9,2.7-5.1c4.2-0.3,6.1-2.8,7.8-6c11.9-21.7,30.5-35.6,52.6-45.6c6-2.8,12.2-4.7,17.1-5.6c-4.8,1.1-11.2,3-17.9,2.7
		c-2.1-0.1-4.5,0.4-5.5-2.4c6.2-2.1,12.8-1.7,19.2-2.4c7.9-0.8,15.9-1.2,23.9-1.7c1.7-0.1,4.7-0.1,3.2,2.6
		c-4.8,8.3-7.3,17.8-13.2,25.6c-1.8-0.7-1.4-2.4-1.8-4.1c-7.6,2.8-14.1,7.3-20.6,12c-13.9,10-24.1,23-29.8,39.1
		c-4,11.3-5.2,23-1.1,34.8c2.2,6.4,2.3,6.5,8.9,5.7c0.5-0.1,1,0.2,1.4,0.5c-0.7,4.2-3.5,7.3-5.6,10.8c-2.6,4.3-4.9,8.9-7.3,13.3
		c0.2-2.6-0.9-4.2-3.2-5.6c-7.8-4.7-13.7-11.4-18.2-19.3C1075.5,127.8,1075.4,127.9,1071,132.3z"/>
	<path class="st0" d="M968.2,278.4c-27.1,10-54.8,15.2-83.6,8.9c-6-1.3-12.2-1.7-17.6-5c7.6,1.5,15.3,3.2,22.9,4.5
		c15.6,2.6,31.2,2.3,46.7-0.5c1.4-0.3,3.3-0.2,3.7-2c0.3-1.7-1.5-2.5-2.6-3.3c-13.9-10.5-24.5-23.8-29.4-40.6
		c-7.8-26.6-6.1-52.2,12.4-74.4c6.3-7.6,14.2-13.6,23.3-17.7c2.9-1.3,5.9-2.2,9.1-2.4c2.6-0.2,5.2,0.3,6.1,3.2
		c0.9,2.9-1.1,4.4-3.2,5.5c-8.2,4.4-14.8,10.6-20.7,17.7c-26.8,32.5-17.8,79.9,19.2,100.2C958.9,275,963.1,277.5,968.2,278.4z"/>
	<path class="st2" d="M965,124.3c-8.7-27.9,0-51,20-70.7c15.3-15.1,34-24.3,54.2-30.8c28.6-9.2,58.3-11.7,88-14.1
		c15.8-1.3,31.5-2.4,47.3-3.3c3.4-0.2,5.4-1.6,7.3-4.2c5.5-7.6,11.6-14.6,19.4-19.9c7.1-4.7,14.8-6,22.8-2.7
		c8.3,3.4,11,11.6,6.3,19.3c-2.1,3.5-5.1,6.1-8.4,8.4c-7.8,7.7-17.4,10.9-28.1,11.8c-3,0.3-4.8,2.5-6.8,4.6
		c-4.4,4.8-5.6,11.1-8.3,16.6c-6.7,12.5-11.5,25.7-16.9,38.8c-9.6,23.2-17.5,47-27.6,69.9c-0.7,4-0.2,4.7,3.8,3.7
		c8.5-2.3,16.7-5.3,24.2-10c3.8-1,7.3-2.9,10.8-4.6c3.7-0.8,7.3-1.7,9.9-4.7c15.5-7.7,30.3-16.5,45-25.4c2-1.2,4-2.4,5.7-4
		c10.2-5.2,19.1-12.4,28.6-18.7c3.4-2.2,7.9-1.5,10.7-4.8c14.6-10.3,28.3-21.7,41.8-33.2c5.6-4.7,10.5-10.2,16.2-14.8
		c1-1,2-1.9,3-2.9c3.9-3.5,7.6-7.1,11-11c14.2-13.6,26.7-28.7,38.4-44.4c2-2.7,4.1-5.2,6.3-7.7c3-3.4,7.3-3.4,10.6-1.7
		c3.5,1.8,2.4,5.9,0.9,8.9c-4.7,9-10.9,17-17.1,25.1c-18.2,23.6-38.6,45.2-61.2,64.7c-4.3,3.7-8.4,7.6-13,10.9
		c-12.9,11.8-27,22-41.1,32.2c-4.6,3.3-9.2,6.5-13.9,9.8c-9.6,10.7-21.8,17.4-34.7,23.2c-0.9,0.4-1.7,1-2.5,1.6
		c-6.7,5.3-14.6,8.6-22.2,12.2c-10.6,5.1-21.5,9.7-32.8,13.1c-6.7,2-7.8,3.7-6.6,10.5c2.4,13.6,6,26.9,10.6,39.9
		c3,10.3,7.4,20.1,11.9,29.8c1,2.2,1.9,4.6,3.5,6.5c7.3,13.8,16,26.4,29.8,34.6c3.2,1.9,6.4,3.5,10,4.4c12.7,5.5,25.6,3.7,38.6,1.8
		c7-1,13.4-3.6,20-5.7c4.3-1.4,8.1-4.3,12.2-6.5c4-2.2,7.5-5.2,11.9-7c4.6-1.9,6.7-7.1,9.4-11.2c0.7-0.9,1.3-1.9,2-2.8
		c1.9-2.2,4.2-3.5,7-2c3,1.7,2.3,4.5,1.2,7c-2.7,6.3-6.9,11.6-11.4,16.6c-2.8,9.3-9.8,13.8-18.6,16.4c-1.9,0.6-3.7,1.6-5.3,2.6
		c-22.3,13.1-45.8,19.5-71.7,13.3c-22.3-5.3-39.5-18.5-54.1-35.6c-0.8-0.9-1.5-1.8-2.2-2.7c-0.6-1-1.2-2.1-2.2-2.6
		c-9.8-5.6-12.5-16.1-17.1-25.2c-1.8-3.6-4.5-7-5-11.2c-6.3-17.1-10.9-34.5-13.4-52.6c-0.3-2-0.6-3.9-0.6-5.9c0-1.7,0.2-3.4,0.3-4.1
		c-5.7,13-13,26.2-20.9,39.1c-15.8,26-35.6,48.5-60.6,66.1c-5,3.5-10.1,7.1-15.9,9.2c-5.7,3.5-11.4,6.8-17.5,9.4
		c-8.6,3.8-17.4,7-27,6.8c-40.4,10.7-80.4,10.4-119.7-4.6c-22.3-8.5-41.4-21.6-54.9-42.2c-17.4-26.7-15-69.7,3.5-90.1
		c5.9-6.6,12.6-12.3,20.2-16.9c4.5-2.4,9-4.7,14.4-4.5c2.2,0.1,4.5,0.2,5.2,2.7c0.9,2.8-0.6,4.8-3,6.1c-1.6,0.9-3.2,1.8-4.8,2.5
		c-14.3,10.5-25,23.6-29.5,41.2c-7.5,29.4,5,58.7,31.4,73.7c7.4,4.2,15,7.9,23.2,10.3c19.2,5.9,38.8,8.2,58.8,6.2
		c6.3-0.6,12.7-1.6,18.8-5c7-3.9,15.2-5.9,23.6-5.2c36.7-13.1,67.3-35.1,93.1-64c5.3-6,9.9-12.6,14.9-19c3.1-4.2,6-8.7,9-13.1
		c5.8-7.5,10-16,15-24c0.7-6.5,2.7-12.4,7.5-17.2c1.8-1.9,1-5.5,2.8-7.9c5.4-8.8,9.2-18.4,13.7-27.7c9.9-20.3,20.5-40.2,29.8-60.8
		c4.6-5.3,6.7-12,9.7-18.2c2-4.1,1.2-5.3-3.3-5.8c-6.5-0.6-12.8,1.3-19.2,1.3c-6.2,0-11.8,2.5-17.9,2.7c-25.9,2.6-51.6,5.9-75.9,16
		c-20.8,8.7-37.5,22.4-48.4,42.2c-7.6,13.7-11.2,28.5-6,44.2c5,15.1,17.8,22.8,33.5,20.2c16.3-2.6,26.8-12.1,33-27.2
		c3.6-8.7,4.6-17.6,4.3-26.8c-0.1-3.4-0.7-7,1.2-10.3c5.9-3.6,12.4-1.6,14.8,4.8c4.3,11.5,3.9,23-1,34.3c-1.7,3.9-6.3,5.7-7.6,10
		c-16.3,29.1-52.8,34.8-74.9,25.2c-10.4-4.5-19.1-11.2-25.1-21.1C968.8,132.5,966.5,128.6,965,124.3z"/>
	<path class="st0" d="M1288.9,300.2c4.1-4.1,10.1-5.7,14.2-9.9c3.1-3.2,6.5-6.1,9.7-9.2c1.2,5.1,5.9,6.5,9.6,8.7
		c8.6,5.1,18.2,7.5,28.2,7.2c21.1-0.6,40.9-5.5,58.2-18.1c4.9-3.6,9.1-7.8,12.3-13c1.5-2.4,3.1-4.8,4.9-6.9c1.8-2.1,4.3-2.7,6.8-1.3
		c2.4,1.3,2,3.7,1.3,5.8c-2.1,6.1-5.9,11.3-10.2,15.9c-21.1,22.3-46.8,35.7-77.9,36.4c-16.9,0.4-32.5-4.9-46.7-14.2
		C1295.9,299.5,1292.8,298.3,1288.9,300.2z"/>
	<path class="st3" d="M841.9,157.1c1.5-1,3-2.1,4.5-3c1.8-1.2,3.2-2.5,2.6-4.9c-0.7-2.6-2.9-3-5.2-2.9c-4.1,0.1-7.7,1.8-11.4,3.4
		c-0.7,0.3-1.6,0.4-2.4,0.7c4.5-4.2,10-5.3,15.9-5c2,0.1,3.8,1.1,4.5,3.3c0.7,2.3-0.1,4.3-2,5.7
		C846.6,155.7,844.6,157.3,841.9,157.1z"/>
	<path class="st4" d="M1331,31.4c-5,5.4-9.9,10.8-16.2,14.8C1319.5,40.4,1324.7,35.3,1331,31.4z"/>
	<path class="st5" d="M1309.9,73.2c3.9-4.2,7.8-8.3,13-10.9C1319.2,66.7,1315.1,70.6,1309.9,73.2z"/>
	<path class="st6" d="M1085.1,182.4c-2,5-5,9.4-9,13.1C1078.2,190.5,1081.4,186.2,1085.1,182.4z"/>
	<path class="st7" d="M1345.1,17.5c-2.9,4.4-6.5,8.3-11,11C1337.2,24.3,1340.7,20.4,1345.1,17.5z"/>
	<path class="st8" d="M965,124.3c2.5,3.8,4.7,7.7,5.9,12.1C967.7,133,965.6,129.1,965,124.3z"/>
	<path class="st9" d="M1200.9,1.7c3.1-4.4,6.6-8.2,11.6-10.4c1.2-0.5,2.5-1.3,3.6,0.1c1,1.3,0.2,2.6-0.7,3.6
		C1211.6-0.7,1206.7,1.3,1200.9,1.7z"/>
	<path class="st10" d="M1163,144.4c3.3-2.5,6.8-4.5,11-5C1170.7,141.8,1167.1,143.6,1163,144.4z"/>
	<path class="st11" d="M1312.6,1.9c-0.7,0.1-1.5,0.1-1.7-0.6c-0.1-0.5,0.2-1.3,0.6-1.7c3.1-3.3,6.4-6.3,10.6-8.2c1-0.5,2.3-1,3.2,0
		c1.2,1.2,0.5,2.6-0.3,3.6C1321.7-1.2,1317.3,0.7,1312.6,1.9z"/>
</g>
<g id="GOOD">
	<g>
		<g>
			<path class="st12" d="M510.1,33.1c5.6-6.3,10.4-10,14.4-11c4.1-1,8-1.5,11.8-1.5c3.8,0,6.7,1.5,8.7,4.5c2,3,3,6,3,8.9
				c0,3-2.3,6.4-7,10.3c-7.9,6.7-20.4,10.8-37.4,12.4c-14.1,23.6-30.2,61.6-48.5,113.9c-6.7,19-15.6,39.3-26.8,60.7
				c-11.2,21.4-23.3,40.2-36.1,56.2c-12.8,16-29.8,30.2-50.9,42.5c-21.1,12.3-45,20.2-71.7,23.9c-8.6,1.1-18.2,1.7-28.7,1.7
				c-10.5,0-21.9-1.3-34.3-3.8c-45.2-9.6-74.3-30.3-87.4-61.9c-4-9.6-5.9-19.2-5.9-28.7c0-9.5,1.4-19.3,4.3-29.4
				c2.8-10.1,9-19.1,18.5-27c9.5-7.9,17.3-12.2,23.5-12.9c3.2-0.5,4.8,0.2,4.8,2.1c0,1.2-0.7,2.1-2.2,2.8
				c-5.9,2.5-13.1,8.5-21.5,17.9c-10.9,12.4-16.3,27.8-16.3,46.1c0,18.8,6.2,34.1,18.5,45.8c15.1,14.7,32.8,23.8,53.3,27.5
				c14.1,2.5,25.7,3.8,34.8,3.8c9.1,0,17.2-0.9,24.1-2.8c20.2-4.4,39.2-11.2,56.8-20.5c17.6-9.3,32.5-19.1,44.4-29.6
				c12-10.4,23.4-22.9,34.4-37.5c11-14.6,19.6-27.3,25.9-38.4c6.3-11,17.5-33.4,33.5-67.1c16-33.7,30.1-61.9,42.2-84.6
				c-3.7,0.5-14.3,1.4-31.8,2.8c-32.3,2.5-57.5,6.2-75.5,11c-33.8,8.7-57.9,25.5-72.2,50.2c-6.9,11.9-10.4,23.5-10.4,34.7
				c0,6,1,11.8,3,17.5c5.4,15.4,16.2,23,32.2,23c20.2,0,34.4-9.7,42.6-29.2c3.9-9.4,5.9-17.2,5.9-23.4c0-6.2-0.2-10.5-0.7-13.1
				c-0.5-2.5-0.1-3.8,1.1-3.8c2,0.5,3.7,2,5.2,4.5c2.2,4.8,3.3,10.5,3.3,17c0,6.5-2.3,14-7,22.5c-7.4,14.4-17.8,24-31.1,28.6
				c-8.1,2.8-15.8,4.1-23,4.1c-12.3,0-23.5-4.1-33.3-12.4c-13.3-11-20-25.3-20-43c0-25,12.6-46,37.8-63
				c23.2-16,56.8-26.3,100.7-30.6c13.3-1.4,28.6-2.6,45.7-3.6c17.2-1,28.1-1.8,32.8-2.2C500.4,44.7,504.5,39.4,510.1,33.1z
				 M448,244.5c-1.5-7.8-2.5-14.2-3-19.3c-0.5-5-0.7-10.3-0.7-15.7c0-5.4,1-8.4,3-9.1c0.2,0,0.6,0,1.1,0c7.4,0,21.1-4.7,41.1-14.1
				c20-9.4,42.8-22.1,68.3-38c25.6-15.9,52.2-36.3,80-61.2c27.8-24.9,50.7-50.1,68.7-75.5c3.2-4.4,5.9-6.5,8.1-6.5
				c0.7,0,1.5,0.3,2.4,1c0.9,0.7,1.3,1.8,1.3,3.4c0,1.6-0.9,3.8-2.6,6.5c-28.1,43.3-67.8,84.1-118.9,122.3
				c-51.1,38.2-93.8,61.3-128.1,69.3c-0.5,0.7-0.7,2.1-0.7,4.3c0,2.2,0.2,5.8,0.7,10.8c0.5,5,2.9,14.7,7.2,29.1
				c4.3,14.3,9.3,27.6,15,39.7c16.8,35.8,38.9,53.7,66.3,53.7c15.8,0,30.9-3.1,45.4-9.3c14.4-6.2,24.9-15.1,31.3-26.8
				c1.5-3.2,3.3-4.8,5.6-4.8c2.2,0,2,2.5-0.7,7.6c-6.7,12.6-18.3,23.8-35,33.5c-16.7,9.7-33.8,14.6-51.3,14.6
				c-17.5,0-34.1-6-49.6-17.9C475.7,321.5,457.4,289,448,244.5z M536.5,33.9c0-2.5-1.1-3.8-3.3-3.8c-2.7,0-5.5,1.1-8.3,3.3
				c-2.8,2.2-7.7,7.1-14.6,14.6c7.2-0.9,12.6-2.3,16.3-4.1C533.2,40.9,536.5,37.6,536.5,33.9z"/>
		</g>
	</g>
	<g>
		<g>
			<path class="st13" d="M400.2,33.1c5.6-6.3,10.4-10,14.4-11c4.1-1,8-1.5,11.8-1.5c3.8,0,6.7,1.5,8.7,4.5c2,3,3,6,3,8.9
				c0,3-2.3,6.4-7,10.3c-7.9,6.7-20.4,10.8-37.4,12.4c-14.1,23.6-30.2,61.6-48.5,113.9c-6.7,19-15.6,39.3-26.8,60.7
				c-11.2,21.4-23.3,40.2-36.1,56.2c-12.8,16-29.8,30.2-50.9,42.5c-21.1,12.3-45,20.2-71.7,23.9c-8.6,1.1-18.2,1.7-28.7,1.7
				c-10.5,0-21.9-1.3-34.3-3.8c-45.2-9.6-74.3-30.3-87.4-61.9c-4-9.6-5.9-19.2-5.9-28.7c0-9.5,1.4-19.3,4.3-29.4
				c2.8-10.1,9-19.1,18.5-27c9.5-7.9,17.3-12.2,23.5-12.9c3.2-0.5,4.8,0.2,4.8,2.1c0,1.2-0.7,2.1-2.2,2.8
				c-5.9,2.5-13.1,8.5-21.5,17.9c-10.9,12.4-16.3,27.8-16.3,46.1c0,18.8,6.2,34.1,18.5,45.8c15.1,14.7,32.8,23.8,53.3,27.5
				c14.1,2.5,25.7,3.8,34.8,3.8c9.1,0,17.2-0.9,24.1-2.8c20.2-4.4,39.2-11.2,56.8-20.5c17.6-9.3,32.5-19.1,44.4-29.6
				c12-10.4,23.4-22.9,34.4-37.5c11-14.6,19.6-27.3,25.9-38.4c6.3-11,17.5-33.4,33.5-67.1c16-33.7,30.1-61.9,42.2-84.6
				c-3.7,0.5-14.3,1.4-31.8,2.8c-32.3,2.5-57.5,6.2-75.5,11c-33.8,8.7-57.9,25.5-72.2,50.2c-6.9,11.9-10.4,23.5-10.4,34.7
				c0,6,1,11.8,3,17.5c5.4,15.4,16.2,23,32.2,23c20.2,0,34.4-9.7,42.6-29.2c3.9-9.4,5.9-17.2,5.9-23.4c0-6.2-0.2-10.5-0.7-13.1
				c-0.5-2.5-0.1-3.8,1.1-3.8c2,0.5,3.7,2,5.2,4.5c2.2,4.8,3.3,10.5,3.3,17c0,6.5-2.3,14-7,22.5c-7.4,14.4-17.8,24-31.1,28.6
				c-8.1,2.8-15.8,4.1-23,4.1c-12.3,0-23.5-4.1-33.3-12.4c-13.3-11-20-25.3-20-43c0-25,12.6-46,37.8-63
				c23.2-16,56.8-26.3,100.7-30.6c13.3-1.4,28.6-2.6,45.7-3.6c17.2-1,28.1-1.8,32.8-2.2C390.6,44.7,394.7,39.4,400.2,33.1z
				 M338.2,244.5c-1.5-7.8-2.5-14.2-3-19.3c-0.5-5-0.7-10.3-0.7-15.7c0-5.4,1-8.4,3-9.1c0.2,0,0.6,0,1.1,0c7.4,0,21.1-4.7,41.1-14.1
				c20-9.4,42.8-22.1,68.3-38c25.6-15.9,52.2-36.3,80-61.2c27.8-24.9,50.7-50.1,68.7-75.5c3.2-4.4,5.9-6.5,8.1-6.5
				c0.7,0,1.5,0.3,2.4,1c0.9,0.7,1.3,1.8,1.3,3.4c0,1.6-0.9,3.8-2.6,6.5c-28.1,43.3-67.8,84.1-118.9,122.3
				c-51.1,38.2-93.8,61.3-128.1,69.3c-0.5,0.7-0.7,2.1-0.7,4.3c0,2.2,0.2,5.8,0.7,10.8c0.5,5,2.9,14.7,7.2,29.1
				c4.3,14.3,9.3,27.6,15,39.7c16.8,35.8,38.9,53.7,66.3,53.7c15.8,0,30.9-3.1,45.4-9.3c14.4-6.2,24.9-15.1,31.3-26.8
				c1.5-3.2,3.3-4.8,5.6-4.8c2.2,0,2,2.5-0.7,7.6c-6.7,12.6-18.3,23.8-35,33.5c-16.7,9.7-33.8,14.6-51.3,14.6
				c-17.5,0-34.1-6-49.6-17.9C365.9,321.5,347.6,289,338.2,244.5z M426.7,33.9c0-2.5-1.1-3.8-3.3-3.8c-2.7,0-5.5,1.1-8.3,3.3
				c-2.8,2.2-7.7,7.1-14.6,14.6c7.2-0.9,12.6-2.3,16.3-4.1C423.4,40.9,426.7,37.6,426.7,33.9z"/>
		</g>
	</g>
</g>
</svg>
